# xmcd
#
# Track frame offsets: 
#        150
#        13721
#        42859
#        57871
#        81404
#        96809
#        120665
#        137618
#        163780
#        188217
#
# Disc length: 3266 seconds
#
# Revision: 0
# Processed by: cddbd v1.5.2PL0 Copyright (c) Steve Scherf et al.
# Submitted via: ExactAudioCopy v0.95b4
#
DISCID=800cc00a
DTITLE=John Lee Hooker And Friends - I'm In The Mood For Love
DYEAR=2006
DGENRE=Blues
TTITLE0=Baby Lee
TTITLE1=When My First Wife Left Me
TTITLE2=Maudie
TTITLE3=Same Old Blues Again
TTITLE4=I'm Bad Like Jesse James
TTITLE5=I'm In The Mood
TTITLE6=Father Was a Jockey
TTITLE7=Crawllin' King Snake
TTITLE8=Mr. Lucky
TTITLE9=The Boogie
EXTD=
EXTT0=
EXTT1=
EXTT2=
EXTT3=
EXTT4=
EXTT5=
EXTT6=
EXTT7=
EXTT8=
EXTT9=
PLAYORDER=
